<svg width="84" height="41" viewBox="0 0 84 41" fill="none" xmlns="http://www.w3.org/2000/svg">
<rect y="0.20459" width="84" height="40" rx="20" fill="#F3F3F3"/>
<path d="M19.0686 26.2046H16.4322L20.4493 14.5682H23.6197L27.6311 26.2046H24.9947L22.08 17.2273H21.9891L19.0686 26.2046ZM18.9038 21.6307H25.1311V23.5512H18.9038V21.6307ZM32.6232 26.375C31.7292 26.375 30.9603 26.1857 30.3163 25.8069C29.6762 25.4243 29.1838 24.894 28.8391 24.216C28.4982 23.5379 28.3277 22.7576 28.3277 21.875C28.3277 20.9811 28.5 20.197 28.8447 19.5228C29.1932 18.8447 29.6875 18.3163 30.3277 17.9375C30.9679 17.555 31.7292 17.3637 32.6118 17.3637C33.3732 17.3637 34.0398 17.5019 34.6118 17.7785C35.1838 18.055 35.6364 18.4432 35.9697 18.9432C36.3031 19.4432 36.4868 20.0303 36.5209 20.7046H34.2368C34.1724 20.269 34.0019 19.9186 33.7254 19.6535C33.4527 19.3845 33.0947 19.25 32.6516 19.25C32.2766 19.25 31.9489 19.3523 31.6686 19.5569C31.3921 19.7576 31.1762 20.0512 31.0209 20.4375C30.8656 20.8239 30.7879 21.2917 30.7879 21.841C30.7879 22.3978 30.8637 22.8713 31.0152 23.2614C31.1705 23.6516 31.3883 23.9489 31.6686 24.1535C31.9489 24.358 32.2766 24.4603 32.6516 24.4603C32.9281 24.4603 33.1762 24.4035 33.3959 24.2898C33.6194 24.1762 33.8031 24.0114 33.947 23.7955C34.0947 23.5758 34.1913 23.3125 34.2368 23.0057H36.5209C36.483 23.6724 36.3012 24.2595 35.9754 24.7671C35.6535 25.2709 35.2084 25.6648 34.6402 25.9489C34.072 26.233 33.3997 26.375 32.6232 26.375ZM42.8126 17.4773V19.2955H37.557V17.4773H42.8126ZM38.7501 15.3864H41.1706V23.5228C41.1706 23.7463 41.2047 23.9205 41.2729 24.0455C41.3411 24.1667 41.4357 24.2519 41.557 24.3012C41.682 24.3504 41.8259 24.375 41.9888 24.375C42.1024 24.375 42.2161 24.3656 42.3297 24.3466C42.4433 24.3239 42.5304 24.3069 42.5911 24.2955L42.9717 26.0966C42.8505 26.1345 42.6801 26.1781 42.4604 26.2273C42.2407 26.2803 41.9736 26.3125 41.6592 26.3239C41.0759 26.3466 40.5645 26.269 40.1251 26.091C39.6895 25.9129 39.3505 25.6364 39.1081 25.2614C38.8657 24.8864 38.7464 24.4129 38.7501 23.841V15.3864ZM44.4893 26.2046V17.4773H46.9098V26.2046H44.4893ZM45.7053 16.3523C45.3454 16.3523 45.0367 16.233 44.7791 15.9944C44.5253 15.7519 44.3984 15.4622 44.3984 15.125C44.3984 14.7917 44.5253 14.5057 44.7791 14.2671C45.0367 14.0247 45.3454 13.9035 45.7053 13.9035C46.0651 13.9035 46.3719 14.0247 46.6257 14.2671C46.8833 14.5057 47.0121 14.7917 47.0121 15.125C47.0121 15.4622 46.8833 15.7519 46.6257 15.9944C46.3719 16.233 46.0651 16.3523 45.7053 16.3523ZM52.8919 26.375C52.0093 26.375 51.2461 26.1875 50.6021 25.8125C49.962 25.4338 49.4677 24.9072 49.1192 24.233C48.7707 23.555 48.5964 22.769 48.5964 21.875C48.5964 20.9735 48.7707 20.1857 49.1192 19.5114C49.4677 18.8334 49.962 18.3069 50.6021 17.9319C51.2461 17.5531 52.0093 17.3637 52.8919 17.3637C53.7745 17.3637 54.5358 17.5531 55.176 17.9319C55.8199 18.3069 56.3161 18.8334 56.6646 19.5114C57.0131 20.1857 57.1874 20.9735 57.1874 21.875C57.1874 22.769 57.0131 23.555 56.6646 24.233C56.3161 24.9072 55.8199 25.4338 55.176 25.8125C54.5358 26.1875 53.7745 26.375 52.8919 26.375ZM52.9033 24.5C53.3048 24.5 53.64 24.3864 53.9089 24.1591C54.1779 23.9281 54.3805 23.6137 54.5169 23.216C54.6571 22.8182 54.7271 22.3656 54.7271 21.858C54.7271 21.3504 54.6571 20.8978 54.5169 20.5C54.3805 20.1023 54.1779 19.7879 53.9089 19.5569C53.64 19.3258 53.3048 19.2103 52.9033 19.2103C52.498 19.2103 52.1571 19.3258 51.8805 19.5569C51.6078 19.7879 51.4014 20.1023 51.2612 20.5C51.1249 20.8978 51.0567 21.3504 51.0567 21.858C51.0567 22.3656 51.1249 22.8182 51.2612 23.216C51.4014 23.6137 51.6078 23.9281 51.8805 24.1591C52.1571 24.3864 52.498 24.5 52.9033 24.5ZM61.2817 21.1591V26.2046H58.8612V17.4773H61.168V19.0171H61.2703C61.4635 18.5095 61.7874 18.108 62.2419 17.8125C62.6964 17.5133 63.2476 17.3637 63.8953 17.3637C64.5014 17.3637 65.0298 17.4963 65.4805 17.7614C65.9313 18.0266 66.2817 18.4053 66.5317 18.8978C66.7817 19.3864 66.9067 19.9697 66.9067 20.6478V26.2046H64.4862V21.0796C64.49 20.5455 64.3536 20.1288 64.0771 19.8296C63.8006 19.5266 63.4199 19.375 62.9351 19.375C62.6093 19.375 62.3214 19.4451 62.0714 19.5853C61.8252 19.7254 61.6321 19.93 61.4919 20.1989C61.3555 20.4641 61.2855 20.7841 61.2817 21.1591Z" fill="black"/>
</svg>
